<?xml version="1.0" standalone="no"?>
<!DOCTYPE svg PUBLIC "-//W3C//DTD SVG 20010904//EN"
 "http://www.w3.org/TR/2001/REC-SVG-20010904/DTD/svg10.dtd">
<svg version="1.0" xmlns="http://www.w3.org/2000/svg"
 width="1024.000000pt" height="1024.000000pt" viewBox="0 0 1024.000000 1024.000000"
 preserveAspectRatio="xMidYMid meet">
<metadata>
Created by potrace 1.14, written by Peter Selinger 2001-2017
</metadata>
<g transform="translate(0.000000,1024.000000) scale(0.100000,-0.100000)"
fill="#000000" stroke="none">
<path d="M4530 9330 c-20 -5 -56 -17 -80 -28 -72 -31 -666 -314 -1055 -502
-190 -91 -252 -120 -309 -144 l-39 -16 -57 54 c-80 77 -147 108 -241 114 -90
5 -170 -15 -241 -60 -51 -32 -147 -133 -378 -398 -79 -91 -189 -215 -245 -275
-167 -184 -251 -278 -281 -315 -52 -63 -434 -488 -571 -633 -110 -118 -153
-206 -153 -316 0 -40 -7 -53 -78 -140 -87 -106 -305 -395 -430 -568 -44 -62
-87 -134 -95 -160 -51 -160 -15 -316 97 -428 48 -48 218 -162 661 -442 294
-186 415 -261 765 -473 270 -164 481 -292 898 -549 23 -14 42 -33 42 -42 0 -9
-11 -70 -24 -135 -13 -66 -52 -272 -85 -459 -34 -187 -70 -385 -81 -440 -10
-55 -33 -178 -50 -274 -36 -197 -62 -303 -114 -446 -44 -126 -60 -224 -53
-345 8 -167 77 -290 215 -383 65 -45 72 -52 72 -83 0 -54 47 -186 88 -250 42
-64 131 -152 202 -201 25 -16 154 -96 288 -176 302 -182 415 -254 519 -328 44
-33 90 -59 101 -59 68 0 72 51 10 113 -97 96 -202 168 -572 390 -138 82 -273
166 -300 187 -96 71 -161 158 -190 258 l-15 53 26 10 c22 8 25 14 19 41 -9 43
-17 51 -114 110 -105 63 -151 108 -188 184 -25 50 -29 73 -32 160 -5 114 13
202 72 361 45 119 48 134 286 1443 41 222 35 203 62 189 79 -41 400 -248 433
-279 22 -21 49 -42 60 -48 18 -10 17 -11 -12 -12 -26 0 -33 -4 -33 -20 0 -18
7 -20 58 -20 40 -1 70 -8 102 -25 l45 -24 -102 -1 c-96 0 -103 -1 -103 -20 0
-18 7 -20 58 -20 147 -1 309 -47 358 -101 22 -25 13 -24 -61 6 -73 29 -232 51
-298 41 -36 -6 -47 -11 -47 -25 0 -17 13 -19 133 -24 135 -5 215 -25 260 -64
23 -21 23 -48 -1 -37 -9 4 -48 18 -87 32 -112 39 -295 43 -295 7 0 -12 16 -15
78 -15 145 0 284 -43 290 -89 3 -20 1 -23 -15 -16 -118 49 -241 75 -255 53
-11 -18 -1 -27 40 -34 120 -20 212 -55 212 -80 0 -17 -33 -16 -72 1 -31 13
-24 -43 7 -57 14 -6 25 -19 25 -28 0 -14 -20 -18 -122 -28 -204 -20 -367 -69
-521 -160 -46 -27 -58 -38 -55 -55 4 -30 30 -27 168 22 63 22 147 45 187 51
64 10 80 9 150 -10 43 -12 97 -33 119 -46 80 -46 134 -136 134 -225 0 -34 4
-49 13 -49 41 0 49 68 17 152 -22 60 -80 123 -150 162 -52 30 -34 34 26 7 54
-25 109 -75 140 -127 35 -60 84 -216 73 -230 -5 -6 -37 -19 -71 -29 -253 -71
-728 -319 -728 -380 0 -13 7 -25 15 -29 9 -3 85 29 173 73 320 161 658 282
779 281 23 -1 18 -5 -27 -24 -61 -25 -208 -114 -315 -190 -107 -75 -231 -183
-328 -286 -71 -75 -88 -97 -85 -119 6 -48 34 -36 150 66 173 152 254 215 379
296 93 61 247 147 262 147 2 0 -24 -55 -58 -122 -77 -152 -140 -311 -132 -332
8 -19 51 -21 64 -3 5 6 35 68 67 137 33 69 62 129 66 133 4 5 -3 -45 -16 -110
-30 -142 -29 -177 5 -181 13 -2 28 2 32 10 18 26 69 205 88 310 41 216 84 846
101 1483 13 479 43 722 126 1007 115 397 220 540 414 566 200 28 372 -79 430
-266 63 -204 67 -650 7 -922 -8 -36 -29 -118 -46 -184 -36 -137 -40 -252 -16
-423 25 -180 49 -247 131 -379 51 -82 68 -130 78 -219 14 -118 -28 -317 -86
-413 -19 -31 -20 -35 -4 -50 15 -15 19 -15 44 -2 71 40 136 175 150 310 l7 74
38 -81 c51 -109 77 -237 77 -385 0 -107 2 -118 20 -128 58 -31 76 37 67 254
-4 104 -10 148 -32 214 -14 46 -24 86 -22 89 8 8 42 -14 107 -68 54 -45 61
-54 55 -78 -7 -33 11 -52 45 -49 18 2 30 -8 54 -46 l31 -50 -1 -213 c-1 -200
0 -213 17 -213 10 0 21 6 26 13 4 6 10 86 13 177 l5 165 19 -40 c15 -32 19
-62 19 -162 0 -96 4 -123 15 -128 26 -10 32 6 32 93 l1 87 19 -39 c11 -21 25
-45 31 -52 9 -11 11 -74 6 -249 -7 -241 -6 -250 30 -227 7 5 16 65 22 166 6
88 13 161 15 164 20 20 27 -181 13 -361 l-8 -98 23 3 c21 3 24 12 35 83 6 44
12 114 13 155 l1 75 21 -40 c12 -22 34 -75 50 -118 35 -97 36 -163 4 -312 -24
-107 -25 -125 -5 -125 15 0 28 45 49 160 l20 105 -5 -105 c-2 -58 -13 -141
-24 -185 -11 -44 -17 -83 -15 -87 19 -31 49 32 69 147 l14 80 -3 -100 c-3 -83
-9 -119 -40 -212 -28 -82 -43 -112 -57 -116 -10 -3 -22 -12 -25 -21 -6 -16 11
-46 27 -46 17 0 91 178 110 265 22 98 29 115 29 68 0 -106 -62 -359 -122 -497
-20 -46 -26 -72 -20 -78 21 -21 88 145 140 351 29 111 42 143 42 103 0 -36
-69 -383 -90 -454 -22 -74 -25 -104 -10 -113 22 -14 76 181 101 360 10 78 13
86 21 60 5 -16 12 -120 16 -230 4 -110 11 -206 15 -213 5 -6 26 -12 47 -12 44
0 43 -2 60 145 29 258 -8 492 -139 877 -71 210 -111 308 -197 481 -219 437
-396 688 -579 823 -35 26 -62 50 -60 53 2 3 24 37 49 76 25 38 46 75 46 82 0
6 17 15 38 18 133 21 224 67 316 161 40 41 76 74 80 74 11 0 469 -210 886
-407 198 -94 251 -105 362 -82 98 21 178 76 223 153 13 22 69 156 125 296 225
565 505 1252 1017 2490 206 498 416 1006 466 1130 l92 225 0 100 c0 87 -3 107
-27 157 -35 75 -100 143 -169 179 -57 28 -403 181 -546 240 -40 17 -73 33 -73
36 0 3 7 33 16 67 46 176 -22 360 -164 443 -45 26 -227 78 -612 173 -118 29
-219 57 -224 61 -5 5 -13 39 -18 76 -19 162 -140 307 -290 350 -50 14 -472 31
-818 32 l-115 1 -19 48 c-55 136 -178 232 -318 248 -50 5 -260 -21 -603 -76
-187 -30 -452 -70 -464 -70 -5 0 -18 16 -27 36 -29 62 -110 141 -178 174 -69
34 -179 48 -246 30z m190 -150 c38 -19 85 -63 101 -92 12 -22 7 -24 -86 -33
-38 -4 -196 -19 -350 -35 -154 -16 -281 -27 -282 -26 -2 1 30 18 70 36 39 19
128 60 197 93 194 91 262 102 350 57z m1384 -94 c18 -7 49 -28 70 -46 37 -33
74 -90 58 -90 -110 0 -759 86 -686 91 5 0 90 13 189 28 204 32 320 38 369 17z
m-661 -171 c426 -77 571 -91 1072 -105 679 -19 764 -24 811 -48 81 -42 144
-129 147 -205 2 -51 28 -53 -285 19 -130 30 -364 81 -520 113 -155 33 -328 69
-383 81 -150 33 -245 17 -352 -56 -64 -44 -100 -97 -141 -206 -185 -497 -236
-636 -309 -838 -91 -251 -328 -886 -386 -1035 -20 -49 -59 -151 -87 -225 -28
-74 -64 -169 -80 -210 -16 -41 -52 -136 -81 -210 -28 -74 -75 -196 -104 -270
-29 -74 -81 -213 -116 -309 -60 -165 -66 -177 -118 -231 -120 -122 -177 -259
-304 -725 l-14 -50 -8 40 c-9 41 -8 46 116 805 53 320 168 973 224 1270 40
210 195 1070 305 1685 113 630 107 609 178 679 79 77 155 82 435 31z m-577 -4
c-8 -9 -26 -41 -40 -71 -25 -54 -47 -166 -146 -730 -22 -129 -45 -255 -50
-280 -10 -46 -91 -488 -134 -735 -14 -77 -50 -275 -80 -440 -120 -650 -180
-987 -246 -1395 -39 -234 -82 -497 -96 -585 -38 -231 -26 -314 60 -407 30 -33
34 -42 29 -78 -7 -52 -25 -52 -78 3 -48 51 -72 117 -80 227 -10 127 -73 1186
-105 1750 -39 689 -89 1406 -156 2230 -16 192 -16 209 0 263 20 69 68 126 130
156 28 12 83 24 147 30 349 35 723 73 779 79 75 9 87 6 66 -17z m-1241 -218
c-30 -68 -29 -114 3 -531 70 -895 88 -1152 137 -2007 29 -498 71 -1175 100
-1610 9 -126 21 -248 26 -270 29 -106 106 -198 202 -238 l48 -20 -3 -46 -3
-46 -75 -3 c-51 -2 -88 2 -117 13 -62 24 -127 94 -153 163 -19 49 -81 272
-190 677 -16 61 -97 358 -179 660 -82 303 -191 705 -241 895 -219 826 -263
994 -302 1140 -22 85 -60 227 -84 315 -80 297 -94 359 -94 422 0 75 15 117 60
161 46 46 81 62 337 152 126 44 293 104 373 134 80 30 149 55 154 55 4 1 5 -7
1 -16z m-810 -37 c28 -13 58 -32 68 -44 22 -24 28 -19 -103 -82 -42 -21 -97
-56 -124 -79 -26 -23 -69 -52 -95 -65 -25 -13 -133 -76 -240 -140 -107 -64
-195 -115 -197 -113 -2 1 93 113 211 249 180 207 222 250 266 272 69 34 144
35 214 2z m3495 -45 c47 -21 171 -78 275 -126 342 -156 1524 -681 1910 -848
121 -52 317 -136 435 -187 118 -50 230 -101 248 -112 81 -50 121 -121 122
-215 0 -64 -17 -111 -200 -548 -23 -55 -77 -185 -120 -290 -187 -456 -222
-539 -285 -690 -37 -88 -118 -284 -180 -435 -62 -151 -168 -408 -235 -570 -67
-162 -241 -592 -387 -955 -161 -402 -275 -674 -292 -695 -44 -55 -105 -85
-176 -85 -51 1 -76 8 -170 52 -60 28 -218 101 -350 163 -245 114 -652 299
-1100 500 -380 170 -469 211 -479 221 -6 5 2 52 18 117 44 181 58 315 59 562
2 404 -42 568 -187 711 -109 107 -297 163 -438 130 -28 -7 -38 -6 -38 3 0 19
39 127 138 386 319 832 389 1015 522 1370 81 217 211 568 288 780 225 617 258
700 289 732 83 88 184 96 333 29z m725 -137 c409 -91 1161 -275 1288 -314 119
-37 187 -119 187 -225 0 -63 -18 -145 -31 -145 -10 0 -394 168 -704 307 -210
95 -647 288 -825 365 -115 50 -146 66 -100 55 14 -4 97 -23 185 -43z m-4472
-276 c-5 -46 -13 -14 221 -903 206 -781 369 -1390 476 -1780 21 -77 75 -277
120 -445 167 -625 282 -1025 308 -1073 34 -63 122 -143 192 -176 44 -20 75
-26 153 -29 114 -5 120 -15 31 -51 -84 -34 -154 -33 -226 2 -92 45 -76 20
-380 577 -77 140 -164 298 -193 350 -28 52 -75 138 -102 190 -51 97 -448 830
-553 1020 -32 58 -101 186 -155 285 -100 185 -257 466 -537 964 -203 360 -219
394 -219 466 0 68 29 133 74 167 18 14 106 69 197 123 334 199 516 308 550
331 19 13 38 24 41 24 4 0 4 -19 2 -42z m-972 -738 c10 -28 40 -89 67 -138 27
-48 93 -166 147 -262 54 -96 146 -260 205 -365 141 -250 346 -623 565 -1030
98 -181 217 -402 265 -490 48 -88 151 -279 230 -425 165 -306 410 -755 482
-883 82 -144 196 -274 281 -319 51 -28 167 -29 236 -4 46 17 61 16 39 -1 -28
-22 -126 -46 -184 -46 -70 1 -132 25 -186 72 -20 18 -83 94 -140 169 -56 75
-134 173 -173 217 -39 44 -122 139 -184 210 -63 72 -207 236 -321 365 -282
320 -610 696 -755 865 -65 77 -154 178 -195 225 -42 47 -175 200 -295 340
-120 140 -269 311 -330 380 -185 209 -284 329 -307 373 -16 31 -22 59 -22 107
0 100 2 103 244 360 76 80 175 188 221 241 46 53 86 94 88 92 2 -1 12 -25 22
-53z m-606 -903 c27 -34 196 -231 375 -437 179 -206 397 -458 485 -560 466
-541 687 -795 1220 -1400 138 -157 269 -308 293 -336 43 -53 56 -80 25 -51
-10 8 -82 55 -160 104 -78 48 -231 145 -340 214 -235 150 -513 320 -1048 644
-143 87 -393 241 -555 342 -821 516 -850 536 -884 647 -23 72 -17 135 18 204
31 61 503 693 516 691 3 0 27 -28 55 -62z m3135 -2946 c0 -18 -127 -44 -194
-39 -99 6 -102 24 -3 20 50 -1 102 3 132 12 62 18 65 18 65 7z m1377 -67 c-3
-3 -12 -4 -19 -1 -8 3 -5 6 6 6 11 1 17 -2 13 -5z m58 -48 c-55 -24 -85 -28
-85 -12 0 15 28 22 85 24 l30 0 -30 -12z m100 -35 c-12 -10 -133 -51 -152 -51
-7 0 -13 6 -13 13 0 8 25 20 63 29 73 18 115 22 102 9z m80 -31 c3 -5 -12 -18
-34 -28 -46 -22 -179 -57 -187 -49 -13 12 8 25 70 41 35 10 81 24 103 31 21 8
39 14 40 15 1 0 4 -4 8 -10z m95 -49 c0 -21 -261 -103 -278 -87 -12 13 26 33
86 45 31 6 80 20 107 31 55 21 85 25 85 11z m100 -46 c-40 -39 -295 -114 -335
-98 -27 10 -6 21 61 32 36 7 94 23 128 36 87 34 118 43 141 44 17 1 17 -1 5
-14z m74 -46 c-19 -32 -239 -109 -310 -109 -59 0 -56 17 4 26 47 6 175 48 242
78 42 18 74 21 64 5z m-1931 -50 c20 -5 37 -14 37 -19 0 -4 -17 -2 -37 5 -21
7 -54 18 -73 24 l-35 10 35 -5 c19 -3 52 -10 73 -15z m1962 5 c-68 -53 -218
-114 -279 -114 -44 0 -22 13 69 43 45 14 110 40 145 56 70 34 97 39 65 15z
m-625 -11 c-1 -20 -27 -59 -35 -52 -7 7 18 69 27 69 4 0 8 -8 8 -17z m636 -38
c-39 -35 -169 -95 -203 -95 -14 1 213 123 237 128 3 1 -12 -14 -34 -33z
m-2015 -6 c52 -11 95 -42 83 -60 -3 -6 -10 -6 -17 -1 -16 13 -103 39 -154 47
-24 4 -43 11 -43 16 0 12 68 11 131 -2z m1404 -40 c-13 -25 -35 -40 -35 -24 0
17 32 65 40 60 6 -4 4 -18 -5 -36z m43 -66 c-13 -21 -24 -31 -30 -25 -5 5 0
24 13 46 14 25 24 33 29 25 4 -6 -1 -27 -12 -46z m-1428 20 c44 -14 56 -23 58
-41 3 -20 1 -22 -15 -14 -28 14 -134 41 -171 44 -36 3 -47 12 -36 29 9 15 90
5 164 -18z m1500 -40 c-1 -26 -37 -103 -50 -103 -17 0 -11 39 13 80 24 43 37
51 37 23z m-1524 -39 c58 -15 87 -35 71 -50 -3 -3 -47 6 -98 20 -52 14 -111
26 -131 26 -30 0 -36 3 -31 16 5 14 16 15 64 10 32 -3 88 -13 125 -22z m1587
-46 c-10 -21 -12 -21 -18 -5 -10 25 2 54 17 39 8 -8 8 -18 1 -34z m67 13 c0
-22 -23 -68 -48 -93 -29 -31 -58 -35 -88 -14 -18 14 -18 16 -2 43 19 32 38 42
38 19 0 -25 18 -19 51 19 31 34 49 44 49 26z m-1722 -32 c98 -16 132 -28 132
-48 0 -17 -5 -17 -87 5 -47 13 -112 26 -145 30 -55 6 -73 17 -45 27 13 5 58 1
145 -14z m42 -83 c51 -14 76 -26 78 -38 3 -14 -9 -12 -87 13 -49 16 -108 31
-130 35 -23 4 -41 11 -41 16 0 13 86 1 180 -26z m11 -78 c35 -12 57 -24 48
-26 -16 -3 -129 35 -129 44 0 8 16 4 81 -18z m-162 -114 c29 -77 26 -91 -5
-19 -14 33 -28 66 -31 74 -4 9 -2 12 5 7 6 -3 20 -31 31 -62z m28 -106 c-3 -8
-6 -5 -6 6 -1 11 2 17 5 13 3 -3 4 -12 1 -19z"/>
<path d="M5224 8700 c-49 -20 -54 -33 -123 -355 -55 -253 -55 -282 -1 -310 31
-16 249 -65 291 -65 28 0 73 30 89 60 13 24 100 438 107 506 9 91 -11 107
-183 148 -117 27 -146 30 -180 16z m156 -101 c124 -29 124 -29 105 -114 -8
-39 -29 -137 -45 -220 -34 -168 -46 -205 -66 -205 -43 0 -214 44 -218 57 -3 8
5 60 18 116 13 56 34 154 46 217 23 118 42 170 62 170 6 0 50 -9 98 -21z"/>
<path d="M5145 7891 c-33 -14 -57 -48 -58 -83 -1 -32 -3 -34 -39 -35 -49 -2
-74 -17 -93 -53 -31 -60 -8 -139 49 -167 32 -15 38 -15 76 0 22 8 40 13 40 11
0 -19 -36 -68 -61 -83 l-31 -19 71 -16 c101 -23 102 -23 81 22 -10 20 -20 54
-23 74 l-6 37 39 -41 c36 -37 43 -40 77 -35 56 9 103 63 103 118 0 33 -6 47
-34 75 -19 19 -44 34 -57 34 -21 0 -21 1 -6 18 20 22 22 80 4 102 -34 44 -85
60 -132 41z"/>
<path d="M4120 8655 c-8 -2 -32 -7 -54 -10 -21 -3 -49 -17 -62 -30 -30 -30
-31 -65 -4 -389 21 -253 28 -280 74 -292 44 -11 61 -1 64 36 3 23 -2 38 -13
46 -13 10 -20 58 -36 269 -13 159 -17 261 -11 267 5 5 34 12 65 15 43 4 58 2
61 -8 3 -8 12 -104 21 -214 8 -110 18 -224 22 -252 5 -50 4 -53 -21 -63 -33
-12 -42 -34 -27 -66 10 -22 15 -24 48 -19 53 9 93 54 93 103 0 76 -41 533 -50
556 -14 38 -49 56 -105 55 -27 -1 -57 -3 -65 -4z"/>
<path d="M4139 7827 c-29 -22 -41 -58 -35 -98 6 -35 4 -39 -15 -39 -11 0 -37
-16 -56 -35 -33 -33 -35 -39 -31 -86 7 -69 41 -104 102 -104 33 0 51 6 70 24
l26 24 0 -24 c0 -13 -9 -44 -20 -68 l-20 -44 72 7 c39 3 74 9 77 11 3 3 -5 12
-17 21 -18 12 -52 72 -52 90 0 3 13 -2 30 -11 37 -19 63 -19 100 0 55 29 74
97 44 160 -17 37 -73 70 -103 60 -17 -5 -19 -2 -14 32 4 31 0 43 -21 66 -21
22 -33 27 -73 27 -26 0 -55 -6 -64 -13z"/>
<path d="M3112 8297 c-102 -35 -137 -60 -148 -103 -8 -30 -1 -60 80 -358 75
-278 77 -279 289 -212 104 33 120 41 137 69 11 18 20 46 20 63 0 39 -135 497
-155 528 -36 54 -92 58 -223 13z m140 -74 c14 -16 35 -82 113 -350 37 -130 36
-132 -60 -165 -129 -43 -112 -63 -184 212 -35 131 -61 246 -58 253 5 13 131
64 163 66 6 1 18 -7 26 -16z"/>
<path d="M3265 7477 c-38 -38 -47 -87 -21 -122 12 -17 10 -20 -18 -34 -18 -9
-39 -33 -50 -54 -16 -33 -17 -45 -7 -77 6 -21 25 -50 42 -64 49 -41 110 -30
148 28 l19 28 4 -37 c2 -20 -1 -51 -8 -70 -13 -40 -16 -40 61 -20 93 24 93 24
59 44 -51 31 -101 106 -55 81 53 -28 131 12 147 75 19 74 -44 153 -113 141
-30 -4 -33 -2 -33 19 0 40 -48 85 -97 92 -39 5 -46 2 -78 -30z"/>
<path d="M6205 8413 c-50 -4 -65 -14 -65 -44 0 -11 15 -21 45 -29 25 -7 45
-14 45 -15 0 -1 -43 -112 -95 -246 -52 -134 -95 -249 -95 -256 0 -20 62 -43
76 -29 13 13 89 205 175 444 46 128 57 167 47 174 -13 8 -38 8 -133 1z"/>
<path d="M5929 7681 c-161 -70 -193 -101 -192 -184 1 -79 61 -120 125 -86 11
6 22 8 26 5 9 -10 -41 -58 -77 -73 -18 -8 -32 -16 -30 -17 2 -2 37 -16 78 -30
l73 -26 -6 22 c-15 47 -18 106 -7 124 9 17 10 15 11 -12 0 -36 37 -79 76 -88
38 -10 95 22 117 64 13 26 16 47 12 82 -7 60 -87 252 -106 255 -8 1 -53 -15
-100 -36z"/>
<path d="M8810 7237 c-13 -7 -34 -26 -46 -44 -32 -47 -186 -442 -192 -491 -6
-56 9 -72 106 -111 147 -58 166 -49 230 105 97 234 152 381 152 404 0 42 -29
71 -104 105 -91 42 -116 47 -146 32z m95 -111 c30 -14 55 -31 55 -39 0 -9 -29
-86 -63 -174 -35 -87 -72 -180 -82 -206 -9 -27 -23 -51 -31 -54 -12 -4 -124
40 -124 50 0 2 34 86 76 188 107 263 106 259 110 259 2 0 28 -11 59 -24z"/>
<path d="M7055 6706 c-469 -208 -849 -433 -993 -586 -81 -85 -114 -143 -142
-243 -66 -236 30 -462 238 -560 62 -30 75 -32 172 -32 98 0 110 2 175 33 38
18 78 40 87 49 31 28 20 -4 -14 -44 -57 -64 -101 -101 -160 -133 -66 -36 -188
-64 -235 -55 -18 3 -33 4 -33 1 0 -23 683 -306 736 -306 9 0 -9 22 -39 50
-101 92 -155 236 -141 375 8 75 13 74 37 -6 48 -158 178 -274 339 -301 180
-30 380 77 459 245 85 182 75 368 -39 757 -80 270 -291 810 -316 810 -6 0 -65
-24 -131 -54z"/>
<path d="M7684 4244 c14 -35 20 -134 7 -134 -6 0 -11 11 -11 25 0 41 -42 75
-91 75 -33 0 -47 -6 -75 -34 -31 -31 -34 -39 -34 -92 0 -43 10 -89 37 -166 21
-60 42 -108 48 -108 21 1 183 67 228 93 99 58 107 175 16 222 -26 14 -33 14
-59 2 -47 -24 -25 5 30 39 l50 31 -63 28 c-94 42 -92 41 -83 19z"/>
<path d="M7391 3743 c-22 -21 -53 -88 -120 -258 -88 -223 -102 -276 -81 -315
5 -10 50 -34 100 -54 166 -67 168 -65 284 249 37 99 73 194 80 210 29 65 29
93 2 120 -21 21 -29 23 -44 14 -14 -9 -30 -4 -83 25 -79 43 -100 45 -138 9z
m128 -94 c28 -12 51 -27 51 -34 0 -7 -22 -68 -49 -136 -26 -68 -61 -159 -76
-201 -41 -114 -42 -116 -99 -94 -69 26 -78 38 -62 84 57 158 160 402 170 402
8 0 36 -10 65 -21z"/>
<path d="M2144 7757 c-109 -62 -201 -125 -218 -148 -35 -51 -30 -64 132 -353
110 -194 137 -226 192 -226 22 0 90 33 90 43 0 2 -5 19 -11 37 -11 30 -14 32
-50 26 -43 -7 -28 -25 -135 167 -24 42 -64 112 -89 155 -25 43 -45 86 -45 95
0 20 197 139 224 135 13 -2 55 -64 133 -198 63 -107 116 -205 119 -216 5 -19
-5 -28 -65 -63 -38 -23 -73 -46 -76 -51 -8 -13 24 -60 42 -60 7 0 50 21 94 46
81 47 109 79 109 127 0 27 -239 450 -274 486 -40 39 -99 39 -172 -2z"/>
<path d="M2454 7015 c-56 -29 -75 -118 -31 -151 l22 -17 -32 -33 c-25 -24 -33
-41 -33 -68 0 -73 47 -126 111 -126 48 0 99 40 99 78 0 21 3 23 12 14 8 -8 12
-37 12 -73 0 -33 2 -58 5 -57 36 17 131 74 131 79 0 4 -13 9 -29 12 -17 4 -44
19 -61 34 l-31 28 45 0 c115 0 156 149 56 208 -31 19 -95 23 -105 7 -12 -20
-35 -10 -35 15 0 47 -82 77 -136 50z"/>
<path d="M1393 7016 l-37 -34 34 -63 c18 -35 72 -129 120 -209 47 -80 110
-186 139 -237 65 -114 73 -121 106 -99 14 9 25 23 25 32 0 12 -192 346 -275
479 -10 17 28 -15 86 -71 217 -209 310 -294 323 -294 7 0 23 11 36 25 l23 25
-154 147 c-306 293 -351 333 -375 333 -8 0 -31 -15 -51 -34z"/>
<path d="M1851 6341 c-42 -39 -44 -100 -4 -137 17 -16 23 -28 17 -32 -6 -4
-16 -17 -23 -29 -40 -77 39 -185 124 -169 41 8 78 47 79 86 1 16 2 30 3 30 9
0 27 -52 32 -91 l6 -48 65 47 64 46 -29 6 c-35 8 -91 35 -100 50 -4 6 8 10 28
10 27 0 42 8 66 35 49 57 34 137 -32 168 -46 22 -79 21 -110 -3 l-25 -20 -6
25 c-3 14 -20 31 -36 40 -45 23 -84 19 -119 -14z"/>
<path d="M844 6111 c-33 -20 -98 -100 -153 -185 -47 -75 -39 -127 28 -181 131
-106 384 -288 413 -297 50 -15 70 0 149 104 120 159 130 182 107 233 -10 23
-327 268 -418 324 -43 26 -85 27 -126 2z m127 -122 c30 -22 113 -85 185 -139
72 -54 135 -103 138 -109 7 -10 -99 -166 -129 -191 -10 -9 -50 17 -182 116
-187 142 -223 172 -223 190 0 23 122 174 140 174 10 0 42 -18 71 -41z"/>
<path d="M1558 5545 c-15 -8 -32 -24 -38 -35 -10 -19 -11 -19 -30 0 -31 31
-85 26 -121 -9 -17 -18 -29 -40 -29 -56 0 -36 26 -82 50 -90 16 -5 18 -10 10
-25 -6 -10 -10 -35 -10 -54 0 -46 48 -103 95 -112 70 -13 135 47 122 113 -5
27 -4 26 29 -12 18 -22 34 -45 34 -52 0 -6 4 -14 9 -17 8 -5 19 9 74 94 l16
25 -42 0 c-52 1 -97 12 -97 25 0 6 8 10 18 10 10 0 30 13 45 28 82 86 -31 225
-135 167z"/>
<path d="M4797 5160 c-90 -16 -178 -74 -212 -141 -20 -37 -50 -177 -74 -345
-26 -174 -27 -230 -5 -238 9 -3 62 -6 119 -6 132 0 242 -20 383 -69 117 -41
145 -42 163 -9 28 52 76 430 64 497 -8 42 -38 102 -59 120 -14 12 -16 5 -16
-68 0 -45 -7 -127 -15 -184 -21 -143 -45 -290 -50 -303 -2 -8 -38 -1 -107 22
-109 37 -258 64 -347 64 l-54 0 6 83 c12 146 56 419 73 445 30 45 97 67 209
66 85 0 109 -4 164 -27 50 -21 67 -24 73 -15 13 21 10 27 -29 52 -77 51 -190
73 -286 56z"/>
<path d="M4662 4553 c3 -15 19 -19 93 -25 82 -7 199 -35 282 -69 18 -7 35 -10
39 -6 39 38 -210 117 -372 117 -38 0 -45 -3 -42 -17z"/>
<path d="M4632 4199 c3 -9 28 -16 74 -20 98 -9 147 -24 242 -74 86 -46 101
-46 55 -3 -59 55 -175 97 -292 105 -69 5 -83 4 -79 -8z"/>
<path d="M4510 4110 c-30 -11 -56 -20 -57 -20 -2 0 -3 -7 -3 -16 0 -11 5 -14
18 -9 59 23 139 36 220 37 92 1 119 10 61 22 -65 13 -183 6 -239 -14z"/>
<path d="M4840 4073 c0 -5 35 -24 77 -43 101 -46 100 -46 85 -27 -16 19 -128
77 -149 77 -7 0 -13 -3 -13 -7z"/>
<path d="M4533 4029 c-35 -11 -63 -24 -63 -29 0 -13 24 -12 95 5 33 8 84 15
113 15 53 0 70 13 30 24 -42 11 -113 5 -175 -15z"/>
<path d="M4875 3967 c33 -18 75 -43 93 -56 18 -13 36 -20 39 -17 12 11 -31 47
-93 76 -84 40 -114 38 -39 -3z"/>
<path d="M4745 3780 c3 -5 13 -10 21 -10 8 0 47 -13 86 -30 79 -34 100 -38 77
-14 -19 18 -140 64 -170 64 -11 0 -17 -4 -14 -10z"/>
<path d="M3457 2803 c-16 -15 -4 -31 32 -42 51 -15 137 -92 151 -136 12 -37
40 -39 40 -2 0 56 -75 135 -162 172 -41 17 -52 18 -61 8z"/>
<path d="M3453 2703 c-4 -10 -1 -19 7 -21 28 -10 107 -93 125 -132 21 -47 45
-53 45 -11 0 18 -16 50 -43 88 -62 84 -119 116 -134 76z"/>
<path d="M5835 2437 c-20 -16 -15 -44 11 -54 23 -9 51 23 38 44 -14 23 -27 26
-49 10z"/>
<path d="M5847 2324 c-15 -16 -7 -53 14 -59 27 -9 42 6 37 36 -3 24 -36 38
-51 23z"/>
<path d="M5845 2160 c-11 -17 5 -50 24 -50 24 0 45 25 37 45 -6 17 -51 21 -61
5z"/>
<path d="M6050 1911 c-20 -39 0 -78 34 -65 28 11 15 84 -16 84 -4 0 -12 -9
-18 -19z"/>
<path d="M6032 1668 c-16 -16 -15 -33 2 -47 26 -22 63 10 50 44 -7 18 -35 20
-52 3z"/>
<path d="M6111 1547 c-16 -16 -13 -57 4 -63 21 -8 45 14 45 41 0 25 -32 39
-49 22z"/>
<path d="M6192 1418 c-16 -16 -15 -33 3 -48 20 -17 47 5 43 34 -4 24 -28 32
-46 14z"/>
</g>
</svg>
